<?xml version="1.0" encoding="UTF-8" standalone="no"?>
<svg version="1.1" xmlns="http://www.w3.org/2000/svg" xmlns:xlink="http://www.w3.org/1999/xlink" width="352.391" height="229.464">
	<path id="dp_path001" transform="matrix(1,0,0,1,-970.064,-17.4387)" fill="black" fill-rule="evenodd" stroke="none" stroke-width="0" d="M 1049.34,17.4387 C 1047.88,19.5507 1046.92,21.9893 1046.17,24.4347 C 1040.88,41.6347 1044.18,60.016 1044.18,77.668 C 1044.18,79.4533 1044.18,79.4533 1044.38,83.032 C 1044.58,86.6093 1044.58,86.6093 1044.58,87.4013 C 1044.58,88.1933 1044.58,88.1933 1044.8,90.152 C 1045.02,92.104 1045.02,92.104 1044.91,92.5067 C 1044.85,92.7227 1044.03,93.0973 1043.08,93.3333 C 1040.98,93.8547 1039.12,94.8693 1037.23,95.904 C 1035.48,96.856 1035.48,96.856 1034.29,97.0787 C 1033.1,97.2933 1033.1,97.2933 1031.71,98.0653 C 1030.32,98.8427 1030.32,98.8427 1029.18,99.0653 C 1024.65,99.9467 1019.89,103.052 1015.8,105.019 C 1011.22,107.228 1011.22,107.228 1009.42,108.221 C 1007.64,109.208 1007.64,109.208 1006.83,109.631 C 1006.27,109.916 1005.71,110.299 1005.05,110.819 C 1004.32,111.424 1003.96,111.645 1003.47,111.812 C 1002.42,112.173 1001.7,113.167 1000.93,113.939 C 1000.36,114.237 999.837,114.564 999.324,114.952 C 998.837,115.307 998.379,115.543 998.108,115.571 C 996.649,115.703 994.155,118.697 993.127,119.649 C 989.369,123.123 995.003,122.039 996.955,121.705 C 1007.88,119.829 1018.56,115.529 1029.05,112.035 C 1033.63,110.5 1037.94,109.145 1038.62,109.013 C 1040.48,108.652 1042.19,107.603 1043.94,106.887 C 1046.57,105.804 1045.78,108.284 1045.79,110.403 C 1045.8,111.959 1046.06,114.549 1046.37,116.161 C 1046.67,117.78 1046.93,120.364 1046.94,121.907 C 1046.96,124.707 1046.96,124.707 1047.34,127.867 C 1047.8,131.701 1047.76,135.585 1047.76,139.44 C 1047.76,140.24 1047.76,140.24 1047.95,143.817 C 1048.15,147.388 1048.15,147.388 1048.15,152.153 C 1048.15,156.925 1048.15,156.925 1048.35,160.496 C 1048.55,164.075 1048.55,164.075 1048.55,171.229 C 1048.55,178.377 1048.55,178.377 1048.75,181.956 C 1048.95,185.527 1048.95,185.527 1048.95,186.52 C 1048.95,187.513 1048.95,187.513 1049.15,190.695 C 1049.34,193.869 1049.34,193.869 1049.54,198.044 C 1049.74,202.213 1049.74,202.213 1049.94,205.749 C 1050.29,211.897 1051.64,217.641 1052.7,223.631 C 1053.53,228.312 1058.69,228.799 1062.49,230 C 1068.8,232.001 1067.51,225.068 1066.8,221.511 C 1065.78,216.447 1065.23,211.077 1065.23,205.908 C 1065.23,201.748 1064.82,197.572 1064.46,193.432 C 1064.06,188.916 1064.04,184.415 1064.04,179.885 C 1064.04,178.295 1064.04,178.295 1063.84,174.724 C 1063.65,171.147 1063.65,171.147 1063.65,163.199 C 1063.65,155.252 1063.65,155.252 1063.44,151.681 C 1063.24,148.103 1063.24,148.103 1063.24,144.525 C 1063.24,139.892 1062.96,135.272 1062.47,130.667 C 1062.1,127.131 1062.1,127.131 1062.07,124.525 C 1062.05,120.801 1061.75,117.099 1061.28,113.404 C 1060.9,110.444 1060.9,110.444 1060.88,107.819 C 1060.86,105.199 1060.86,105.199 1060.61,102.963 C 1060.25,99.8427 1062.47,98.5853 1065.63,98.4813 C 1068.58,98.3907 1071.69,96.5853 1074.37,95.508 C 1078.7,93.7573 1078.7,93.7573 1079.93,93.5147 C 1080.6,93.3893 1081.94,92.9453 1082.91,92.528 C 1084.65,91.7707 1084.65,91.7707 1088.07,90.9373 C 1092.16,89.9373 1096.19,88.728 1100.23,87.5187 C 1104.85,86.1293 1109.73,85.72 1114.18,83.796 C 1120.15,81.204 1119.96,80.204 1123.63,79.7107 C 1125.31,79.488 1128.28,80.232 1129.17,80.2107 C 1130.07,80.1907 1132.04,79.8147 1133.54,79.3707 C 1141.12,77.1547 1149.18,76.064 1156.97,74.924 C 1164.56,73.8133 1164.56,73.8133 1168.74,73.0347 C 1179.39,71.0627 1190.15,70.3947 1200.91,69.284 C 1205.85,68.776 1210.8,68.2067 1215.6,66.9013 C 1216.8,66.5747 1218.24,66.0747 1218.8,65.7893 C 1221.74,64.296 1216.57,62.8027 1215.62,62.496 C 1204.32,58.9333 1191.25,59.3773 1179.58,60.544 C 1163.07,62.1973 1146.55,64.7827 1130.37,68.4707 C 1125.15,69.6587 1119.87,70.652 1118.65,70.6733 C 1113.66,70.764 1108.44,72.868 1103.65,74.0627 C 1098.01,75.4667 1098.01,75.4667 1096.69,75.856 C 1095.38,76.2373 1095.38,76.2373 1092.2,76.856 C 1090.45,77.1893 1088.06,77.8973 1086.88,78.4187 C 1080.97,81.0453 1074.19,82.448 1068.05,84.3653 C 1059.71,86.964 1059.71,86.964 1059.69,87.0613 C 1059.67,87.1653 1059.67,87.1653 1059.67,83.8653 C 1059.67,80.5653 1059.67,80.5653 1059.47,76.9947 C 1059.28,73.4173 1059.28,73.4173 1059.28,71.236 C 1059.28,69.048 1059.28,69.048 1059.07,65.4693 C 1058.87,61.892 1058.87,61.892 1058.87,59.9053 C 1058.87,57.9253 1058.87,57.9253 1058.68,54.348 C 1058.48,50.7707 1058.48,50.7707 1058.48,48.5893 C 1058.48,39.0987 1055.8,27.8667 1051.53,19.4053 C 1050.98,18.3213 1050.27,17.4387 1049.94,17.4387 C 1049.74,17.4387 1049.34,17.4387 1049.34,17.4387 Z M 976.663,19.0293 C 961.824,74.8133 975.968,134.064 978.649,190.299 C 979.22,202.365 980.116,214.391 980.852,226.451 C 981.067,230.021 981.067,230.021 981.867,234.801 C 982.665,239.58 982.665,239.58 983.116,240.733 C 984.471,244.213 990.112,246.673 993.641,246.673 C 1000.18,246.673 997.247,238.788 996.719,234.315 C 994.92,219.205 994.204,204.012 993.475,188.819 C 992.648,171.64 991.209,154.683 989.369,137.579 C 987.855,123.435 986.556,109.312 985.799,95.1053 C 985.403,87.7213 985.403,87.7213 985.403,84.9347 C 985.403,82.156 985.403,82.156 985.201,78.5787 C 985.007,75.008 985.007,75.008 985.007,68.248 C 985.007,52.5347 982.471,36.9733 978.885,21.7187 C 978.567,20.336 978.08,19.1613 977.809,19.12 C 977.323,19.0293 977.323,19.0293 976.989,19.0293 C 977.059,19.0293 976.663,19.0293 976.663,19.0293 Z M 1182.8,81.0027 C 1177.07,83.9347 1175.4,90.2707 1174.8,96.2653 C 1173.82,106.075 1173.27,116.265 1173.27,126.137 C 1173.27,127.527 1173.27,127.527 1173.07,131.104 C 1172.06,149.284 1173.5,167.429 1175.43,185.492 C 1176.4,194.585 1176.4,194.585 1176.4,195.836 C 1176.39,199.511 1180.83,201.067 1183.56,202.296 C 1185.45,203.151 1190.94,203.977 1191.36,200.969 C 1192.18,195.183 1190.52,188.381 1189.95,182.705 C 1188.75,170.827 1188.75,170.827 1188.65,167.881 C 1188.58,165.603 1188.55,164.929 1189.07,165.096 C 1189.95,165.387 1190.63,166.263 1191.34,166.819 C 1192.29,167.568 1192.29,167.568 1192.91,167.985 C 1204.88,176.107 1214.75,187.868 1224.08,198.775 C 1227.28,202.519 1232.56,205.213 1237.62,204.575 C 1240.61,204.192 1238.9,199.927 1237.8,198.6 C 1227.16,185.735 1215.55,174.008 1202.46,163.636 C 1201.93,163.227 1201.31,162.775 1201.07,162.643 C 1200.63,162.407 1200.63,162.407 1199.85,161.831 C 1197.13,159.801 1194.12,158.225 1191.15,156.592 C 1188.44,155.099 1190.28,153.876 1191.36,151.521 C 1192.09,149.916 1193.05,148.624 1194.27,147.388 C 1195.01,145.992 1195.93,144.664 1196.88,143.4 C 1197.19,142.969 1197.53,142.385 1197.63,142.087 C 1198.16,140.489 1199.99,138.961 1201.05,137.635 C 1201.82,136.661 1201.82,136.661 1202.44,135.849 C 1204.93,132.543 1207.7,129.395 1210.42,126.276 C 1213.08,123.227 1215.65,120.1 1218.17,116.94 C 1218.94,115.967 1218.94,115.967 1219.36,115.348 C 1219.78,114.737 1219.78,114.737 1220.35,113.959 C 1220.92,113.181 1220.92,113.181 1221.32,112.591 C 1221.72,111.993 1221.72,111.993 1222.14,111.396 C 1222.37,111.063 1222.72,110.347 1222.93,109.805 C 1223.31,108.812 1223.31,108.812 1223.72,107.923 C 1225.55,103.893 1226.49,98.44 1225.75,94.0707 C 1224.88,88.9227 1218.92,94.8627 1216.55,96.0987 C 1211.81,98.5853 1208.04,103.761 1204.88,107.977 C 1200.1,114.355 1194.82,120.399 1189.59,126.415 C 1188.49,127.687 1188.49,127.687 1188.43,127.687 C 1188.36,127.687 1188.36,127.687 1188.36,125.776 C 1188.36,117.516 1188.86,108.895 1189.75,100.669 C 1190.36,95.0147 1188.81,89.4573 1186.55,84.344 C 1185.8,82.6493 1184.81,81.0027 1182.8,81.0027 Z M 1123.62,82.5933 C 1122.24,83.0667 1122.24,83.0667 1121.12,83.6293 C 1114.41,86.956 1110.65,94.82 1108.4,101.74 C 1108.22,102.26 1108.22,102.26 1107.56,100.92 C 1106.58,98.968 1105.47,99.288 1104.09,100.732 C 1100.55,104.428 1098.7,110.695 1097.77,115.64 C 1095.83,125.984 1097.5,137.531 1098,147.985 C 1098.19,151.827 1098.35,155.668 1098,159.511 C 1097.89,160.712 1097.89,163.477 1098,165.665 C 1098.2,169.639 1098.2,169.639 1098.22,172.417 C 1098.24,175.196 1098.24,175.196 1098.65,177.635 C 1099.07,180.073 1099.07,180.073 1099.41,183.477 C 1099.75,186.881 1099.75,186.881 1099.75,186.784 C 1099.75,186.68 1099.75,186.68 1096.77,186.083 C 1093.79,185.492 1093.79,185.492 1092.24,185.492 C 1088.04,185.492 1090.49,189.145 1092.11,190.632 C 1094.09,192.452 1096.08,193.793 1098.51,194.967 C 1100.87,196.113 1100.87,196.113 1100.92,196.427 C 1100.98,196.745 1100.98,196.745 1100.98,197.892 C 1100.98,200.552 1101.76,204.588 1103.84,206.436 C 1106.26,208.591 1111.53,210.508 1114.82,209.799 C 1118.57,209 1117.16,204.443 1116.59,201.712 C 1118.61,202.171 1120.62,202.629 1122.62,203.172 C 1132.88,205.916 1143.47,206.347 1153.25,201.755 C 1158.41,199.329 1162.8,194.508 1164.13,188.853 C 1165.64,182.331 1164.31,174.14 1159.4,169.243 C 1159.31,168.68 1158.91,168.243 1158.57,167.812 C 1155.19,163.539 1150.98,159.899 1146.63,156.669 C 1142.37,153.487 1136.94,150.333 1131.95,148.847 C 1131.31,148.659 1134.47,147.367 1134.95,147.152 C 1136.32,146.555 1136.32,146.555 1138.12,145.561 C 1139.9,144.567 1139.9,144.567 1140.71,144.151 C 1141.8,143.595 1142.58,142.677 1143.44,141.831 C 1144.01,141.532 1144.53,141.205 1145.05,140.816 C 1145.82,140.24 1145.82,140.24 1146.26,140.017 C 1152.36,136.968 1157.88,127.957 1158.96,121.524 C 1160.24,114.001 1160.35,102.643 1154.4,96.696 C 1153.45,95.744 1153.45,95.744 1153.29,95.2587 C 1152.61,93.0907 1148.93,90.9653 1147.11,89.568 C 1145.87,88.6027 1144.24,87.6027 1142.72,87.1853 C 1142.2,87.04 1141.8,86.832 1141.55,86.5813 C 1139.85,84.8173 1135.76,84.06 1133.45,83.5107 C 1130.21,82.74 1126.94,82.5933 1123.62,82.5933 Z M 1276.14,83.7893 C 1275.28,84.1987 1273.5,84.7267 1272.16,84.956 C 1269.42,85.428 1265.24,86.7347 1263.22,88.7493 C 1262.27,89.708 1262.27,89.708 1261.85,89.7427 C 1261.44,89.784 1261.44,89.784 1259.63,91.7707 C 1254.09,97.8627 1250.58,105.867 1247.91,113.597 C 1247,116.259 1245.9,118.857 1244.56,121.329 C 1244.04,122.288 1243.51,123.88 1243.39,124.865 C 1243.17,126.651 1243.17,126.651 1242.57,128.284 C 1240.51,133.904 1239.64,140.191 1238.87,146.103 C 1237.28,158.503 1236.68,171.591 1238.41,184.005 C 1239.09,188.812 1240.8,194.64 1244.32,198.163 C 1244.56,198.621 1244.79,199.073 1244.99,199.552 C 1246.77,203.755 1249.86,201.852 1251.15,198.871 C 1253.99,192.32 1253.29,184.053 1252.9,177.107 C 1252.48,169.591 1252.72,162.185 1253.55,154.717 C 1253.81,152.452 1254.16,150.487 1254.34,150.347 C 1254.52,150.201 1254.81,150.381 1254.99,150.743 C 1256.46,153.688 1259.99,156.273 1262.24,158.676 C 1267.32,164.129 1272.57,169.444 1277.76,174.8 L 1280.34,177.585 C 1282.9,180.337 1285.45,183.088 1288.01,185.845 C 1290.42,188.256 1292.83,190.667 1295.24,193.077 L 1296.23,193.869 C 1297.23,194.668 1297.23,194.668 1298.02,195.265 C 1298.81,195.856 1298.81,195.856 1299.51,196.391 C 1301.26,197.753 1303.55,199.093 1305.72,199.593 C 1306.29,199.725 1307.29,200.121 1307.95,200.469 C 1310.81,201.991 1315.3,202.303 1318.39,201.387 C 1321.4,200.497 1323.24,196.155 1321.03,193.585 C 1320.38,192.82 1320.25,192.619 1320.19,192.279 C 1319.71,189.541 1313.93,190.647 1312.48,191.028 C 1309.54,191.807 1309.54,191.807 1309.03,191.813 C 1307.11,191.835 1304.22,187.756 1303.14,186.68 C 1299.15,182.685 1295.35,178.517 1291.46,174.404 C 1286.52,169.167 1281.49,164.012 1276.49,158.836 L 1273.93,156.072 C 1271.37,153.307 1271.37,153.307 1269.16,150.909 C 1266.79,148.325 1264.38,145.789 1261.97,143.261 L 1264.11,142.705 C 1266.27,142.143 1268.18,141.171 1270.18,140.197 C 1271.02,139.788 1272.09,139.343 1272.54,139.225 C 1273.35,139.009 1273.35,139.009 1274.53,138.433 C 1275.17,138.113 1276.16,137.745 1276.73,137.613 C 1277.3,137.488 1278.37,137.037 1279.11,136.62 C 1281.53,135.272 1284.08,134.119 1286.64,133.071 C 1287.65,132.653 1287.65,132.653 1289.04,131.855 C 1290.43,131.063 1290.43,131.063 1291.25,130.645 C 1292.33,130.089 1293.11,129.173 1293.96,128.319 L 1294.56,127.923 C 1295.16,127.527 1295.16,127.527 1295.63,127.38 C 1297.8,126.7 1300.48,122.712 1301.69,120.635 C 1304.17,116.384 1305.13,111.896 1305.13,106.984 C 1305.13,102.976 1304.42,96.5853 1301.35,93.5147 C 1300.4,92.5627 1300.4,92.5627 1300.22,92.028 C 1299.39,89.52 1294.55,87.4493 1292.42,86.3867 C 1287.49,83.928 1281.5,83.7893 1276.14,83.7893 Z M 1135.14,92.528 C 1143.9,97.5987 1147.95,112.021 1142.26,120.775 C 1141.81,121.476 1141.4,122.288 1141.27,122.761 C 1141.05,123.553 1141.05,123.553 1140.1,124.504 C 1139.14,125.463 1139.14,125.463 1139.01,125.929 C 1138.36,128.027 1134.73,130.444 1132.93,131.875 C 1131.95,132.653 1131.95,132.653 1131.26,133.195 C 1130.87,133.501 1130.25,133.863 1129.85,134.008 C 1129.29,134.216 1128.93,134.452 1128.19,135.057 C 1126.32,136.572 1123.72,137.384 1121.59,138.455 C 1119.34,139.58 1117.1,140.725 1114.88,141.913 C 1114.88,134.633 1117.5,127.353 1119.07,120.295 C 1119.41,118.767 1120.3,116.105 1121.03,114.376 C 1122.08,111.959 1122.89,109.52 1123.64,107.005 C 1124.06,105.595 1124.06,105.595 1124.81,104.441 C 1125.93,102.733 1126.65,100.781 1127.39,98.884 C 1127.74,97.988 1128.45,96.8213 1128.98,96.3 C 1129.93,95.348 1129.93,95.348 1130,94.9453 C 1130.33,93.0147 1133.63,92.528 1135.14,92.528 Z M 1287.65,93.716 C 1290.12,97.328 1290.68,103.115 1289.63,107.263 C 1286.23,120.879 1272.15,124.443 1261.02,129.868 C 1260.21,130.264 1259.38,130.513 1258.53,130.771 L 1259.37,129.152 C 1260.21,127.527 1260.21,127.527 1260.42,126.297 C 1260.75,124.469 1261.42,122.789 1262.24,121.128 C 1262.65,120.273 1263.1,119.113 1263.22,118.544 C 1263.35,117.981 1263.81,116.905 1264.22,116.161 C 1265.35,114.133 1266.2,111.959 1267.16,109.847 C 1268.15,107.665 1268.15,107.665 1268.33,107.325 C 1268.51,106.984 1268.51,106.984 1268.97,105.893 C 1269.42,104.803 1269.42,104.803 1270.37,103.844 C 1271.15,103.067 1271.93,102.288 1272.28,101.212 C 1272.99,98.9813 1276.91,96.884 1278.9,95.904 C 1281.63,94.5707 1284.61,93.716 1287.65,93.716 Z M 1114.48,150.924 C 1116.69,152.229 1118.8,152.827 1121.28,153.529 C 1123.24,154.084 1125.55,154.973 1126.4,155.495 C 1127.95,156.447 1127.95,156.447 1131.36,157.877 C 1133.38,158.725 1135.15,159.684 1136.69,161.219 C 1137.25,161.517 1137.78,161.844 1138.29,162.227 C 1138.72,162.545 1139.28,162.872 1139.53,162.949 C 1141.99,163.707 1144.45,167.875 1146.07,169.987 C 1149.17,174.015 1150.82,179.969 1148.46,184.693 C 1148.14,185.332 1147.87,186.04 1147.84,186.284 C 1147.81,186.721 1147.81,186.721 1146.85,187.673 C 1145.9,188.624 1145.9,188.624 1145.84,189.013 C 1145.49,191.264 1140.34,193.057 1138.59,193.849 C 1131.61,197.024 1122.81,195.273 1115.87,192.911 C 1115.55,190.757 1115.32,188.667 1115.3,186.485 C 1115.27,183.859 1115.27,183.859 1114.9,180.323 C 1113.93,171.279 1113.69,162.185 1113.69,153.091 C 1113.69,151.896 1113.86,150.924 1114.09,150.924 C 1114.09,150.924 1114.48,150.924 1114.48,150.924 Z "/>
</svg>